<?xml version="1.0" encoding="UTF-8"?>
<svg id="Layer_1" data-name="Layer 1" xmlns="http://www.w3.org/2000/svg" viewBox="0 0 1814.81 614.8">
  <defs>
    <style>
      .cls-1, .cls-2 {
        stroke-width: 0px;
      }

      .cls-2 {
        fill: #fff;
      }
    </style>
  </defs>
  <path class="cls-1" d="m1800.61,261.7c-4.8-2.7-10.3-4.2-15.9-4.2-6.4,0-12.6,2-18,5.8-7.5,5.3-11.8,13.6-11.9,22.6-.1.6-.4,2.9-1.7,8.7-1.4,5.9-3.5,12.9-6.2,20.8-2.8,8-6.2,16.5-10.1,25.1-3.7,8.2-7.8,15.8-12.3,22.5-3.9,6-8.1,10.9-12.3,14.6-1.6,1.4-2.5,1.7-2.5,1.7-.9,0-1.7-.1-3.2-1.3-3.5-2.8-6.5-6.2-9.2-10.5-2.9-4.5-5.1-9.2-6.6-14.1-1.2-3.9-1.7-6.6-2-8.5,6.1-1.6,11.7-3.6,16.9-6.1,10.7-5,19.7-11.1,26.9-18.1,7.6-7.3,13.2-15.4,16.9-23.9,3.8-8.8,5.7-16.8,5.7-24.5,0-3.8-.5-8.1-1.6-13.2-1.4-6.8-4.3-13.1-8.5-18.8-4.2-5.6-9.8-10.4-16.7-14.1-7.4-4.1-16.3-6.2-26.4-6.2-13.2,0-25.9,2.3-37.8,6.9-12.2,4.7-23.2,11.8-32.5,21-9.4,9.2-16.9,20.6-22.4,33.9-1.8,4.5-3.4,9.2-4.6,14.1-.1-4.4,0-8.4.1-12,.2-8.2.3-10.4.3-11.6,0-.7.1-2,.3-4.1.9-6.8,0-13.6-2.6-20.1-2.4-6.1-6.6-11.4-12.1-15.6,2.7-4.9,4.2-10.4,4.2-16.2,0-3.8.7-6.8,2-9.1,6-10.2,8.6-18.1,8.6-25.5,0-9.7-3.7-18.4-10.5-24.4-4.3-3.8-9.4-6.6-15.5-8.3-4.1-1.2-8.5-1.9-13.1-2.2-3.4-.2-6.5-.3-9.4-.3-9.6,0-18.6,3.1-26,8.8-5.2,4.1-14.1,13.6-14.1,31.2,0,5.7.4,11.7,1.3,17.8.9,6.1,1.9,11.4,3.2,16.2,1.4,5.2,3,9.7,4.9,13.7.4.8.8,1.6,1.2,2.3-1.2,1.4-2.1,2.8-3,4.1-3.9,6.6-6.4,14.7-7.5,24.9-.1,1.1-.3,2.5-.4,4.5-1.6-2.4-3.4-4.5-5.4-6.4-.1-1.4-.1-3.5-.2-6.9-.3-8-2.3-16.3-6-24.7-4.1-9.3-10.7-17.6-19.7-24.6-3-2.3-6.2-4.3-9.8-6-8.6-4-19-6-30.9-6-20,0-37.4,4.4-51.7,13.1-13.4,8.2-24.3,18.4-32.5,30.6-7.8,11.6-13.3,24.1-16.5,37.1-.6,2.3-1.1,4.6-1.5,6.8-2.1-4.1-4.7-7.6-7.9-10.5-.2-1.4-.4-3-.8-4.7-1.2-6.2-3.9-12.4-8-18.2-4.4-6.3-10.6-11.4-18.5-15.4-7.7-3.9-17-5.7-28.4-5.7-8.1,0-17.1,1.2-27.8,3.9-11.7,2.9-23,8.2-33.5,15.9-10.6,7.8-19.7,18.2-27.3,30.9-8.1,13.6-12.1,30.8-12.1,51.1,0,4.6.2,9.1.5,13.3-1.7,8.3-3.2,15.5-4.7,22.3-.1.4-.2.7-.3,1.1.4-12.2.9-25.3,1.8-39.3,1.2-22.1,2.4-44.8,3.5-67.3,1.1-23,1.8-45.9,2.1-68.1.4-22.9-.4-43.6-2.2-61.7-2.1-19.8-5.7-35.7-11.1-48.5-11.6-27.4-32.6-30.4-41.1-30.4-11.4,0-22.2,2.4-32.1,7.2-4,1.9-7.8,4.1-11.4,6.6-.4-3.3-.9-6.6-1.5-9.8-2.2-12.9-5.6-23.6-10.4-32.7-7.7-14.6-20.5-23-35.2-23-16.2,0-31.1,5.8-44.1,17.1-10.6,9.3-20.1,21.4-27.9,35.9-5.1,9.4-9.9,19.7-14.3,31-3.4-5.2-8-9.8-13.7-13.4-10.3-6.6-20.7-9.9-31.1-9.9-5.2,0-9.7.2-13.6.7-7.7,1-14.4,3.9-19.7,8.6-4,3.5-9.1,9.9-10.9,20.5-.8,4.4-1.2,9.9-1.2,16.7,0,3.3.1,11.2.3,22.5.2,11.6.4,25.9.7,43.1-5.3-4.8-12.5-7.7-20.6-7.7-1.9,0-4.4.1-9.5.7.4-6.7,1-13.3,1.5-19.6l.1-.8c.3-6.5.6-11.6.8-15.5.3-7.4-.6-13.6-2.9-19.2-3.7-8.9-11.1-15.4-20.6-18.2-4.7-1.4-10.1-2-16.9-2h-2.4c-21.5,0-33.5,8.7-39.7,15.9-8.7,10.1-12.7,24.7-12.7,45.7,0,7.1-.1,14.4-.2,21.7v.3c-8,.2-15.3,3-21.3,8.2-5.9,5.2-9.8,11.9-11.1,19.5-1.6,9.3,1.2,18.7,7.6,25.7,5.7,6.2,13.7,9.6,23.6,10.1l-.4,20.7c-7.1-20.1-22.9-32-42.8-32-13,0-25,3.6-35.1,10.5-.7-11.2-6.1-20.7-14.9-26.3-6.4-4.1-14.3-6-23.9-6-13.4,0-25.7,4.3-35.5,12.6-6,5-12.7,13.2-15.3,25.8-.6-.9-1.2-1.8-1.8-2.6-4.2-5.6-9.8-10.4-16.7-14.1-7.5-4.1-16.3-6.2-26.4-6.2-13.2,0-25.9,2.3-37.8,6.9-5,1.9-9.8,4.3-14.4,7,1.9-7.2.7-14.5-2.4-20.3-8.4-15.5-27.1-15.5-35-15.5-3.6,0-6.9.7-9.8,1.8-12.7,4.8-19.2,18.2-21.7,23.2-4.1,8.4-8.4,18.9-13,31.4-4.4,11.9-8.7,24.9-13.1,38.4-1.6,4.8-3,9.5-4.4,13.9-3.2-10.6-6.2-20.9-8.7-30.7-2.6-9.8-4.8-18.3-6.5-25.3-1.3-5.4-1.8-7.9-2-8.9-.4-10.9-5.5-21.1-14.4-28.9-8.6-7.4-20.2-11.2-34.7-11.2-5.2,0-9.2.1-12.3.3-7.6.6-13.1,3.2-17,6.2-6.9-15.8-21.3-16.7-24.6-16.7-20.2,0-39.9,1.9-58.9,5.6-9.3-.9-17.2-2.8-23.4-5.5-6.9-3-12.3-6.2-16.1-9.6-4-3.6-5.7-6.3-6.5-8.1-1.2-2.7-1.5-4.1-1.6-4.5,0-5.5.4-10.7,1.2-15.6,12,2.7,24.6,4.6,37.6,5.7,8.5.7,16.8,1.1,24.9,1.1,13.1,0,25.8-1,37.8-2.9,21.2-3.4,39.5-10.6,54.3-21.3,18-13.1,27.5-32,27.5-54.6,0-17.6-6.3-32.8-18.2-44.1-10.2-9.7-23.3-16.5-38.8-20.1-9.2-2.1-19.1-3.2-29.6-3.2-5.4,0-11,.3-16.7.9-16.1,1.6-32.5,5.3-48.8,11.1-16.4,5.8-32.4,13.9-47.3,24.1-6.5,4.4-12.6,9.2-18.3,14.4-1-3.9-2.7-7.5-4.9-10.7-5.6-8-14.2-12.6-23.5-12.6-1,0-2.1.1-3.2.2-8.9,1-16.6,6.1-21.8,14.2-3.8,6-5.6,13.2-5.6,22.3,0,12.1,4.4,23.7,12.9,33.6,2.2,2.7,4.7,5.3,7.5,7.8-1.7,4.2-3.2,8.6-4.6,13-3.7,12-5.6,25.1-5.6,38.8,0,19.9,6.4,38.4,19.1,54.9,3.5,4.6,7.4,8.8,11.8,12.6-11.6,8.2-22.2,17.2-31.8,27.1-19.1,19.7-33.9,41.1-44.1,63.6C6.51,352.6.91,376,.11,399.3c-.9,24.3,3.9,46.7,14.1,66.7,10.5,20.5,26.7,37.2,48.3,49.6,21.2,12.2,47.7,18.4,78.8,18.4,26.5,0,50.7-4.5,71.9-13.3,20.7-8.6,38.6-19.7,53.2-32.8,14.6-13.2,26.2-27.7,34.6-43.2,4.8-8.9,8.6-17.7,11.2-26.2.6,1.7,1.3,3.4,1.9,5,3.9,9.8,11.1,28,30.1,28,6.2,0,12.9-.9,19.7-2.6s13.1-4.1,18.9-7.1c6.4-3.4,12.1-7.6,16.7-12.6,6.7-7.1,10.4-15.7,10.8-24.9.2-1.1.9-4.3,3.1-11.8,2.6-9,5.9-19.6,9.9-31.7.6-1.8,1.2-3.6,1.8-5.5,1,5,2.2,10,3.7,14.9,4.4,14.2,11,27.2,19.6,38.4,8.9,11.6,19.8,21.1,32.3,28.2,13.4,7.5,28.6,11.4,45.1,11.4,14.8,0,28.6-5,40.9-14.9,5-4,9.7-8.5,14.2-13.5,2.5,3.4,5.2,6,7.7,7.8,7.7,5.8,16.6,8.8,25.6,8.8,10.3,0,18.8-1.2,26-3.8,7.2-2.6,13-7.3,16.9-13.5,2.1,9.9,4.9,18.8,8.6,26.5,8.1,16.8,22.5,26.5,39.6,26.5,13,0,32.1-4.2,49.9-23.9,5.4,11.6,12.2,21.3,20.3,29,11.9,11.3,27.2,17.3,44.3,17.3,10.7,0,26.4-3.6,41-20.7,4.6-5.5,9-11.7,13.1-18.6.5,3.6,1,6.9,1.6,9.9,1.7,9.5,6.2,34.7,29.6,34.7,4.1,0,8.6.2,13.3.5,2.7.2,5.2.2,7.7.2,3.9,0,7.7-.2,11.2-.7,9.2-1.2,17.5-4.9,23.8-10.8,5.7-5.3,12.1-15.2,10.5-31.8,0-.4-.1-.9-.1-1.4l-.1-.4c-3-22.2-4.5-47.4-4.3-74.9.2-27.9,1.7-56.8,4.4-85.8,2.7-29.1,6.6-57.6,11.4-84.9,4.8-27.1,10.3-51.5,16.5-72.6.4-1.6.9-3.1,1.4-4.7-.5,19.1-1.5,40.8-2.7,64.8-1.4,26.7-2.9,53.9-4.3,81.8-1.4,28.1-2.6,55.7-3.5,82.2-.9,26.9-1.1,51.4-.6,72.8.2,7.9.5,15.3.9,22.1.8,12.3,1.9,22.8,3.4,31.8,5.7,34.2,24,39.3,34.4,39.3,11.3,0,20.9-1,29.3-3.1,17.2-4.3,27.8-18.9,27.8-38,0-2.2-.1-9.5-.3-21.9-.1-6-.1-12.8-.1-20.5s0-16.2.1-25.5c0-4.4.1-8.8.2-13.4.3,2.3.6,4.5.9,6.7,1.7,11.3,4.1,21.4,7.2,30.4,2.4,7.3,5.4,13.9,8.7,19.9,10.3,18.2,26.6,28.2,46,28.2,17.7,0,33.6-6.1,46-17.7,10.2-9.6,18.8-21.7,25.4-36,3.8-8.2,7.1-16.9,9.9-26.2,2.6.5,5.1.9,7.7,1,6.1.4,11.3.6,15.4.6,6.2,0,13.1-1.4,21.2-4.4,1.6,2.9,3.3,5.7,5.1,8.3,5.3,7.5,12.2,13.9,20.4,18.8,9.1,5.5,19.7,8.2,31.6,8.2,18.3,0,34.2-7.1,45.9-20.5,7.1-8.1,13.2-18.1,18.4-29.5,4.1.7,8.5,1.1,13,1.1,3.7,0,7.3-.3,10.9-.8-3.4,4.2-6.8,8.5-10.1,12.7-10.4,13.2-19.8,26.4-27.8,39-8.4,13.4-15.2,26.7-20.2,39.7-5.5,14.3-8.2,28.4-8.2,41.9,0,18.9,4.1,35.3,12.1,49,8.1,13.8,18.7,24.2,31.3,30.9,10.8,5.7,22.5,8.6,34.7,8.6,2.3,0,4.6-.1,6.9-.3,15.2-1.3,29.2-7.5,41.8-18.2,11.6-9.9,21.1-23.9,28.4-41.6,7.1-17.3,10.6-38.1,10.6-63.5,0-9.1.1-18.9.3-29.2.2-10.6.4-21.7.8-33.2.3-11,.8-22.4,1.3-33.7.4-8.1.7-16.3,1.1-24.4.7-.8,1.4-1.6,2.1-2.4.9,3.5,1.8,6.9,2.8,10.1,3.7,12.1,8.9,22.4,15.6,30.8,9.3,11.7,22.3,18.2,36.7,18.2,15.2,0,29.5-5.3,42.4-15.8,1.6-1.3,3.1-2.6,4.6-4,.2.3.5.6.7,1,8.9,11.6,19.8,21.1,32.3,28.2,13.4,7.5,28.6,11.4,45.1,11.4,14.8,0,28.6-5,40.9-14.9,9.9-7.9,18.8-17.8,26.6-29.4,7.2-10.9,13.6-22.9,19-35.8,5-12,9.3-23.6,12.9-34.5,3.7-11.2,6.3-20.7,8.1-29.1,2.5-11.6,2.9-15.2,2.9-18.4-.2-10.1-5.4-19.3-14.2-24.4Zm-380.4,276.2l-.2-.2c-.8-.8-3.3-4.2-3.3-14.9,0-11.8,5.2-25.7,15.5-41.4.6-.9,1.2-1.9,1.9-2.8v10.7c0,24.4-4.3,35.4-6.8,39.8-3.3,5.6-5.8,7.9-7.1,8.8Zm17.3-262.9c-1.4,3.7-2.3,8.2-2.3,13.5v30.8c-2.2,1.5-4.6,3-7.1,4.4-1.4.8-2.9,1.4-4.4,1.9-.3-2.2-.5-4.6-.5-7.4,0-4.8.4-9.8,1.2-14.7,3-17.1,7.7-23.6,10.3-26.1.9-.9,1.9-1.7,2.8-2.4Zm-576.1-59.9c.1,6.1.3,12.4.5,18.9.3,12.3.6,24.7,1,37.2-4.2,5.6-4.9,11.5-5,14.7-.1.7-.3,3.4-1.6,12.4-1.2,8.2-2.9,18-5.1,29.2-2.3,11.5-5,24-8.1,36.9-3,12.5-6.4,24-10.1,34.3-.5,1.3-1,2.6-1.4,3.9-1.6-8-2.9-17.3-3.9-27.9-2-20.4-3.1-44.9-3.1-73.1,0-23.2.7-48.4,2.1-75.2,2-.4,3.9-.8,5.8-1.2,5.4-1.2,7.6-1.5,8.3-1.6,8.2-.2,15.4-3.4,20.6-8.5Zm-293.1,86.7c.1,3.9.3,7.8.4,11.9-.2.6-.4,1.2-.6,1.8-1.9,5.6-4.2,11.4-6.7,17.3-1.1,2.6-2.2,5.2-3.4,7.8-3.7,8.2-7.8,15.8-12.3,22.5-3.9,6-8.1,10.9-12.3,14.6-1.6,1.4-2.5,1.7-2.5,1.7-.9,0-1.7-.1-3.2-1.3-3.5-2.8-6.5-6.2-9.2-10.5-2.9-4.5-5.1-9.2-6.6-14.1-1.2-3.9-1.7-6.6-2-8.5,6.1-1.6,11.7-3.6,16.9-6.1,8.9-4.2,16.6-9.1,23.1-14.7,1.3-1.1,2.6-2.2,3.8-3.4,6.1-5.8,11-12.2,14.6-19ZM181.71,99.3c6.2-4.3,12.7-7.9,19.4-10.6,9.2-3.8,18.4-6.3,27.4-7.4,4.6-.6,8.9-.9,12.9-.9,3.7,0,7.2.2,10.4.7,4.1.7,7.5,1.7,9.9,3.1-.4,1.6-1.4,3-4.1,4.7-7.4,4.7-17.1,8-28.8,9.8-7.7,1.2-15.9,1.7-24.4,1.7-6,0-12.3-.3-18.8-.9-1.3,0-2.7-.1-3.9-.2Zm87.6,170c2.2,9.6,4.9,20.6,7.9,32.7,2.7,11,5.8,22.7,9.2,34.8-6.5-2.7-13.8-4.2-21.8-4.2-3.7,0-22.4,1.2-26.2,25.4-1.9,11.9,3,19.8,6.1,23.4,3.4,4,7.8,6.8,12.7,8.3-1.9,5.8-5.7,12.6-11.4,20.2-6,8-13.9,15.7-23.5,22.8-9.6,7.1-21.3,13.2-34.7,18-12.9,4.7-27.6,7.1-43.4,7.1-14.6,0-25.1-3.1-31.2-9.2-6.8-6.8-10.6-15.4-11.7-26.3-1.2-12.8,1-27.2,6.6-42.7,5.9-16.1,15.1-31.5,27.5-45.7,12.3-14.1,27.7-26.1,45.9-35.4,17.4-9,37.5-13.6,59.8-13.6,11.6,0,21.6-5.6,28.2-15.6Z"/>
  <path class="cls-2" d="m264.61,356.7c-1.1,0-1.9,1.7-2.4,5.1s.6,5.1,3.5,5.1c7.8,0,12.9,2.8,15.2,8.5s2.1,12.8-.5,21.3c-2.7,8.5-7.7,17.7-15.2,27.7-7.5,9.9-17,19.2-28.5,27.7-11.6,8.5-25.1,15.6-40.7,21.3-15.6,5.7-32.9,8.5-51.7,8.5-21.3,0-37.4-5.4-48.2-16.2-10.8-10.8-17.1-24.5-18.6-41-1.6-16.5,1.1-34.2,8-53.2s17.6-36.8,32-53.3,32-30.2,53-41c20.9-10.8,44.6-16.2,70.8-16.2,3.9,0,7-2.3,9.3-6.9s3.8-9.8,4.5-15.4c.7-5.7.7-10.8,0-15.4s-2-6.9-3.7-6.9c-19.9,0-39,2-57.5,5.9-13.5-1.1-24.9-3.6-34.4-7.7-9.4-4.1-17-8.7-22.6-13.8-5.7-5.2-9.8-10.5-12.2-16-2.5-5.5-3.7-10.2-3.7-14.1,0-17.1,3-32.1,9.1-45.3,17,5.7,35.7,9.4,55.9,11.2,20.2,1.8,39.2,1.2,56.7-1.6,17.6-2.8,32.2-8.5,43.9-17.1,11.7-8.5,17.6-20.2,17.6-35.1,0-11-3.6-19.9-10.7-26.6-7.1-6.7-16.3-11.5-27.7-14.1s-24.1-3.3-38.4-1.9c-14.2,1.4-28.6,4.7-43.1,9.9-14.6,5.2-28.5,12.2-41.8,21.3s-24.6,19.8-33.8,32.2c-6.4-3.9-11.5-8.1-15.2-12.5s-5.6-9.3-5.6-14.7c0-3.2-.6-5.7-1.9-7.4-1.2-1.8-2.7-2.6-4.3-2.4-1.6.2-3,1.2-4.2,3.2-1.2,1.9-1.9,5.1-1.9,9.3,0,6.4,2.4,12.4,7.2,18.1,4.8,5.7,11.3,11,19.4,16-5,8.5-9,17.7-12,27.4-3,9.8-4.5,20.4-4.5,31.7,0,14.6,4.7,27.9,14.1,40.2,9.4,12.3,23.2,21.2,41.3,26.9-24.9,11.7-45.9,26.5-63.1,44.2s-30.4,36.7-39.4,56.7c-9.1,20.1-13.9,40.2-14.7,60.5-.7,20.2,3.1,38.5,11.5,54.9,8.3,16.3,21.3,29.6,38.9,39.7s39.9,15.2,66.8,15.2c23.4,0,44.3-3.8,62.6-11.5,18.3-7.6,33.7-17.1,46.3-28.5s22.5-23.6,29.6-36.7,11.4-25.4,12.8-36.7c1.4-11.4-.2-20.9-4.8-28.5-4.7-8.2-12.4-12-23-12ZM160.21,85.3c9.9-8,20.5-14.3,31.7-18.9,11.2-4.6,22.4-7.6,33.5-9.1,11.2-1.4,21.2-1.4,30.1,0,8.9,1.4,16.1,4.3,21.8,8.5s8.5,9.6,8.5,16c0,11.7-5.2,20.9-15.4,27.4-10.3,6.6-23,11-38.1,13.3s-31.4,2.6-49,1.1c-17.6-1.6-33.6-4.7-48.2-9.3,6.8-11.3,15.2-21,25.1-29Z"/>
  <path class="cls-2" d="m447.31,225.4c-1.1-1.9-5.7-2.9-13.8-2.9-2.8,0-6.1,3.8-9.9,11.5-3.7,7.6-7.7,17.3-12,29s-8.5,24.2-12.8,37.6c-4.3,13.3-8.2,25.8-11.7,37.6-3.6,11.7-6.8,21.4-9.6,29s-4.8,11.5-5.9,11.5-2.8-3.1-5.3-9.3c-2.5-6.2-5.2-14.1-8.3-23.7-3-9.6-6.2-20-9.6-31.2-3.4-11.2-6.4-21.7-9.1-31.7-2.7-9.9-4.9-18.6-6.7-25.8-1.8-7.3-2.7-11.6-2.7-13.1,0-4.6-2-8.7-6.1-12.2s-10.4-5.3-18.9-5.3c-4.6,0-8.1.1-10.4.3-2.3.2-3.9.8-4.8,1.9-.9,1.1-1.3,2.7-1.3,4.8v8.5c0,2.5,1.2,8.8,3.5,18.9s5.2,22,8.5,35.7c3.4,13.7,7.3,28.2,11.7,43.7,4.4,15.4,8.7,29.7,12.8,42.6,4.1,13,7.8,23.7,11.2,32.2s5.9,12.8,7.7,12.8c4.3,0,8.9-.6,13.8-1.9,5-1.2,9.5-2.9,13.6-5.1,4.1-2.1,7.5-4.7,10.4-7.7,2.8-3,4.3-6.3,4.3-9.9,0-2.1,1.3-7.8,4-17s6-20.1,10.1-32.5,8.5-25.6,13.3-39.7c4.8-14,9.4-27,13.8-38.9,4.4-11.9,8.3-21.9,11.5-30.1s5.1-12.6,5.9-13.3c3-2.3,3.9-4.4,2.8-6.3Z"/>
  <path class="cls-2" d="m1544.51,214.5c1.1,3.9,2.2,7.2,3.5,9.9,1.2,2.7,2.4,4,3.5,4,5,0,9.4-1,13.3-2.9s5.9-4.9,5.9-8.8c0-8.2,1.8-15.3,5.3-21.3s5.3-10.5,5.3-13.3-.8-5-2.4-6.4-3.6-2.5-6.1-3.2-5.1-1.1-8-1.3c-2.8-.2-5.5-.3-8-.3-4.3,0-8,1.2-11.2,3.7s-4.8,6.6-4.8,12.3c0,4.6.4,9.4,1.1,14.4.6,4.8,1.5,9.3,2.6,13.2Z"/>
  <path class="cls-2" d="m1788.71,282.6c-1.2-.7-2.6-1.1-4-1.1s-2.7.4-4,1.3c-1.2.9-1.9,2.1-1.9,3.5,0,2.5-.8,7.1-2.4,13.8-1.6,6.7-3.9,14.5-6.9,23.2s-6.7,17.7-10.9,27.2c-4.2,9.4-9,18-14.1,25.8-5.2,7.8-10.7,14.3-16.5,19.4-5.9,5.1-12,7.7-18.4,7.7s-12.9-2.2-18.4-6.7c-5.5-4.4-10.3-9.9-14.4-16.2-4.1-6.4-7.2-13.1-9.3-20-2.1-6.9-3.2-12.9-3.2-17.8,0-3.6.1-6.7.3-9.6.2-2.8.4-5.7.8-8.5,11.6-1.1,21.6-3.6,29.8-7.5,8.3-3.9,15.1-8.4,20.4-13.6,5.3-5.1,9.2-10.6,11.6-16.2,2.5-5.7,3.7-10.6,3.7-14.9,0-2.1-.4-4.9-1.1-8.2-.7-3.4-2.1-6.5-4.2-9.3-2.1-2.8-5.1-5.3-9-7.4s-8.8-3.2-14.8-3.2c-10.2,0-20,1.8-29.1,5.3-9.2,3.5-17.3,8.8-24.4,15.7-7.1,6.9-12.7,15.6-17,25.8-4.2,10.3-6.4,22.4-6.4,36.2,0,6.9.6,13.6,1.6,20.1-.9,1.9-1.8,3.9-2.7,5.7-4.2,8.3-9,15.2-14.1,20.5s-10,8-14.6,8c-3.2,0-5.7-2.5-7.5-7.5s-3.2-11.4-4.2-19.2c-1.1-7.8-1.8-16.2-2.1-25.3-.4-9.1-.6-17.6-.8-25.6-.2-8-.2-14.9,0-20.8s.3-9.5.3-10.9c0-2.1.2-4.5.5-7.2.4-2.7,0-5.3-1.1-8s-3.1-4.9-6.1-6.7c-3-1.8-7.9-2.7-14.6-2.7-7.5,0-12.2,1.8-14.4,5.3-2.1,3.6-3.6,8.7-4.3,15.4-.3,2.5-.5,7.4-.5,14.9,0,3.3.1,7,.1,10.8-1.9,2.4-4.1,5.1-6.7,8.4-3.7,4.6-8.4,10.1-13.9,16.5s-12.3,14.2-20.5,23.4c0-1.1.1-3.8.3-8.3.2-4.4.3-9.1.3-13.8v-20c0-7.8-1.1-13.4-3.2-16.8s-5.5-5.4-10.1-6.1c-2.8-.4-5.8-.7-9-1.1s-6.1-.3-8.8.2c-2.7.5-4.9,1.7-6.7,3.5-1.8,1.8-2.7,4.4-2.7,8v42.6c-5.7,5-12.2,9.5-19.4,13.6-7.3,4.1-15.4,6.1-24.2,6.1-3.6,0-6.6-1.5-9.1-4.5s-4.4-6.9-5.6-11.7c-1.2-4.8-1.9-10.2-1.9-16.4s.5-12.5,1.6-18.8c1.6-8.9,3.7-16.5,6.5-23,3-6.9,6.7-12.4,11.1-16.6,5.4-5.1,10.9-8.7,16.4-10.9,3.1-1.3,6.3-2.1,9.5-2.4,8.7-.9,16.4.7,23.2,4.8,6.7,4.1,10.1,8.6,10.1,13.5,0,3.9,1.6,5.7,4.8,5.3,3.2-.3,4.8-1.6,4.8-3.7,0-.7-.1-3.5-.3-8.5-.2-4.9-1.5-10.2-4-15.9-2.5-5.7-6.6-10.8-12.5-15.4-3-2.3-6.6-4.1-11-5.2-4.3-1.1-9.2-1.7-14.8-1.7-15.6,0-28.7,3.2-39.1,9.6-10.5,6.4-18.8,14.2-25,23.4-6.2,9.2-10.6,19-13.1,29.3s-3.7,19.4-3.7,27.2c0,1.6,0,3.3.1,4.9.2,6.1,1,12,2.3,17.8,1.1,5.2,2.7,10,4.8,14.4-1.7,5.1-3.4,10.1-5.1,14.7-3.9,10.6-7.9,19.4-12,26.1-4.1,6.8-8.2,10.1-12.5,10.1-5,0-8.7-3.7-11.2-11.2-2.5-7.4-4.2-16.2-5.3-26.4-.6-5.3-1-10.6-1.3-15.9-.3-4.9-.5-9.8-.6-14.7-.2-10.3-.2-18.5-.2-24.5,0-4.6-.5-8-1.6-10.1s-2.3-3.6-3.7-4.5c-1.4-.9-3-1.2-4.8-.8-1.8.4-3.4.7-4.8,1.1-1.8.4-3.9.9-6.4,1.6s-5,1.9-7.5,3.4c-2.5,1.6-4.6,3.6-6.4,5.9s-2.7,5.2-2.7,8.8v25.3c0,3-.2,5.2-.5,6.6-.7,3.2-1.8,6.7-3.2,10.7-1.4,3.9-3.4,7.6-5.9,10.9-2.5,3.4-5.1,6.2-8,8.5-2.8,2.3-5.9,3.5-9.1,3.5-6.4,0-11.1-5.2-14.1-15.7s-4.5-22.6-4.5-36.5c0-6.7.8-13.7,2.4-20.8,1.6-7.1,4.2-13.6,7.7-19.4,3.6-5.9,8.4-10.6,14.4-14.1,6.1-3.6,13.7-5.3,22.9-5.3,3.6,0,6.4.7,8.5,2.1s3.7,3,4.8,4.8c1.1,1.8,1.7,3.6,1.9,5.3.2,1.8.3,3,.3,3.7,0,1.8,1.2,2.6,3.7,2.6,3.2,0,4.8-1.1,4.8-3.2,0-1.4-.3-3.5-.8-6.4-.5-2.8-1.9-5.7-4-8.8-2.1-3-5.3-5.6-9.6-7.7-4.2-2.1-10.1-3.2-17.6-3.2-6,0-13.4,1.1-22.1,3.2s-17,6.1-25,12-14.9,13.8-20.8,23.7c-5.9,9.9-8.8,22.9-8.8,38.9,0,5.3.3,10.2.7,14.6-1.8,8.6-3.6,17.3-5.5,26.1-2.9,13-6.1,24.7-9.6,35.1-1.1,3.2-2.2,6.2-3.4,9.1-2.6,6.5-5.5,12.1-8.6,16.8-4.4,6.7-9.9,10.1-16.2,10.1-4.2,0-7.1-5.1-8.5-15.4,0-.1,0-.2-.1-.3-1.4-10.5-2-24.3-1.9-41.5.2-17.2.9-36.7,2.1-58.6s2.4-44.2,3.5-67.1,1.7-45.4,2.1-67.4-.4-41.6-2.1-58.9c-1.8-17.2-4.9-31.1-9.3-41.5-4.4-10.5-10.7-15.7-18.9-15.7s-15,1.6-21.6,4.8-12.4,7.3-17.6,12.2c-5.2,5-9.8,10.7-13.9,17.1s-7.7,13-10.9,19.7c0-11.4-.4-23.3-1.1-35.7-.7-12.4-2-23.8-3.7-34.1-1.8-10.3-4.4-18.8-8-25.6-3.6-6.7-8.2-10.1-13.9-10.1-10.3,0-19.7,3.7-28.2,11.2-8.5,7.4-16.1,17.2-22.7,29.3s-12.5,25.9-17.8,41.5-10,31.6-14.1,47.9-7.6,32.5-10.7,48.5c-3,16-5.8,30.2-8.2,42.6-.4-11.7-.6-25-.8-39.9-.2-14.9-.4-29.1-.5-42.6-.2-13.5-.3-25.2-.3-35.2v-18.6c0-7.8-3.2-13.8-9.6-17.9s-12.4-6.1-18.1-6.1c-4.2,0-7.8.2-10.6.5-2.9.4-5.1,1.2-6.7,2.7-1.6,1.4-2.7,3.6-3.2,6.6s-.8,7.2-.8,12.5c0,2.9.1,10.2.3,22.1.2,11.9.4,26.7.8,44.5s.8,37.5,1.3,59.4c.4,16.4.9,33,1.4,49.6-1.2.2-2.4.6-3.5,1.2-1.2.7-1.9,1.4-1.9,2.1,0,1.8-.6,6.9-1.9,15.4-1.2,8.5-3,18.6-5.3,30.4-2.3,11.7-5.1,24.3-8.3,37.8-3.2,13.5-6.8,25.8-10.9,37s-8.4,20.5-13.1,27.9c-4.6,7.5-9.4,11-14.4,10.7-6.1,0-11.1-6.1-15.2-18.3-4.1-12.2-7.2-29-9.3-50.2-2.1-21.2-3.2-46.4-3.2-75.5s1.1-60.8,3.2-95.1c9.2-1.8,17.1-3.4,23.7-4.8s10.7-2.1,12.5-2.1c3.9,0,5.8-1.7,5.8-5.1s-1.9-5.1-5.8-5.1c-1.8,0-6,.4-12.5,1.3-6.6.9-14.3,1.9-23.2,3,.7-8.2,1.3-16.4,1.9-24.7s1.1-16.4,1.9-24.7c.3-6.4.6-11.5.8-15.3.2-3.7-.2-6.7-1.1-8.9-.9-2.1-2.6-3.6-5.1-4.3-2.5-.7-6-1.1-10.7-1.1-11-.3-18.8,2.2-23.4,7.5-4.6,5.4-6.9,15.4-6.9,30,0,7.1-.1,14.6-.2,22.2-.2,7.7-.3,15.4-.3,23.3-4.2.4-8.2.5-12,.5h-10.9c-2.5,0-4.6.8-6.4,2.3-1.8,1.6-2.8,3.3-3.2,5.4-.3,2.1.2,3.9,1.6,5.4,1.4,1.6,4.1,2.3,8,2.3,7.5,0,14.9-.6,22.4-1.6-.4,20.6-.7,41.3-1.1,62-.4,20.8-.3,40.7.2,59.7.2,6.4.5,12.6.8,18.7-2.7,9.8-5.7,19-9.1,27.7-5.3,13.7-10.9,24.9-16.8,33.8-1.7,2.5-3.2,4.6-4.7,6.4-3.9,4.6-7.4,6.9-10.4,6.9-2.5,0-3.9-3.3-4.2-9.9,0-.8-.1-1.6-.1-2.4-.2-6.2-.1-14,.3-23.2.6-10.5,1.2-22.2,2.1-35s1.3-25.5,1.3-37.9c0-21.4-1.8-38.1-5.3-50.2-3.6-12.1-10.5-18.2-20.8-18.2-9.6,0-17.7,2.8-24.5,8.5-6.7,5.7-12.3,11.8-16.8,18.4-4.4,6.6-7.9,12.7-10.4,18.4-2.5,5.7-4.1,8.5-4.8,8.5-.7-10.3-1.2-20.1-1.6-29.3-.4-7.4-.6-14.7-.8-21.7s-.2-11.6-.2-13.7c0-4.2-1.2-7-3.7-8.6s-6.2-2.3-11.2-2.3c-7.8,0-14.5,2.3-20,6.9s-8.1,11.2-7.7,19.7c0,2.8.1,8,.3,15.4s.4,15.9.8,25.3c.2,6.7.5,13.7.7,20.9-.6,2-1.3,4.1-2.1,6.2-2.6,7.5-5.7,15.3-9.2,23.4-.5,1.2-1.1,2.5-1.7,3.8-4.3,9.4-9,18-14.1,25.8-5.2,7.8-10.7,14.3-16.5,19.4-5.9,5.1-12,7.7-18.4,7.7s-12.9-2.2-18.4-6.7c-5.5-4.4-10.3-9.9-14.4-16.2-4.1-6.4-7.2-13.1-9.3-20s-3.2-12.9-3.2-17.8c0-3.6.1-6.7.3-9.6.2-2.8.4-5.7.8-8.5,11.6-1.1,21.6-3.6,29.9-7.5,5.2-2.4,9.9-5.2,13.9-8.1,2.4-1.7,4.5-3.6,6.5-5.5,5.3-5.1,9.2-10.6,11.6-16.2,2.5-5.7,3.7-10.6,3.7-14.9,0-2.1-.4-4.9-1.1-8.2-.7-3.4-2.1-6.5-4.2-9.3-2.1-2.8-5.1-5.3-9-7.4s-8.8-3.2-14.8-3.2c-10.2,0-20,1.8-29.1,5.3-6.5,2.5-12.5,5.9-17.9,10.1-2.2,1.7-4.4,3.6-6.4,5.6-7.1,6.9-12.7,15.6-17,25.8-4.2,10.3-6.4,22.4-6.4,36.2,0,12.4,1.8,24.4,5.3,36,3.6,11.6,8.8,21.8,15.7,30.9s15.2,16.4,25,21.9,20.9,8.2,33.3,8.2c9.2,0,17.8-3.2,25.8-9.6s15.2-14.4,21.6-24c6.4-9.6,12-20.2,16.8-31.7.7-1.9,1.5-3.7,2.2-5.5.7-1.7,1.3-3.4,2-5.1.1,2.2.2,4.3.2,6.4,0,.4.1.8.1,1.2.4,9.2.7,17.4,1.1,24.5.4,7.1.7,11.7,1.1,13.9.7,6.7,2.8,11.4,6.4,14.1,3.6,2.7,7.3,4,11.2,4,7.5,0,13.4-.8,17.8-2.4,4.4-1.6,6.7-5.6,6.7-12,0-4.6-.1-10.5-.2-17.7v-1.5c-.2-7.8-.2-15.5,0-23.2.2-7.6.5-14.7,1.1-21.3.5-6.6,1.5-11.2,2.9-14.1,1.4-2.8,3.7-6.7,6.9-11.7s6.6-9.9,10.1-14.6c3.6-4.8,6.9-8.9,10.1-12.2,3.2-3.4,5.5-5.1,6.9-5.1s2,4.2,1.9,12.8c-.2,8.5-.5,19.1-1.1,31.7s-.8,26.4-.8,41.3c0,13.4.7,26,1.9,37.5.1,1.3.3,2.5.4,3.7,1.6,12.6,4.4,23.2,8.5,31.7,4.1,8.5,10,12.8,17.9,12.8,12.1,0,23-5.6,32.7-16.8,1.8-2.1,3.5-4.2,5.2-6.4,7.5-9.9,14.1-21.6,19.6-35.1.3-.9.7-1.7,1-2.6v.2c2.1,16.7,5.5,31.2,10.1,43.4.5,1.3,1,2.5,1.5,3.7,4.4,10.5,9.9,18.9,16.6,25.3,7.5,7.1,16.7,10.6,27.7,10.6,8.2,0,15.7-4.1,22.6-12.2,2.1-2.5,4.2-5.3,6.2-8.2,4.5-6.5,8.6-14.1,12.4-22.7,5.5-12.4,10.3-26.1,14.4-41s7.4-29.2,10.1-42.9c1.2-6.4,2.4-12.4,3.3-18,.5,13.4,1.1,26.5,1.7,39.4,1.1,21.1,2.3,39.9,3.7,56.4,1.2,13.8,2.5,25.3,3.9,34.5.3,1.8.6,3.6.9,5.2,1.8,9.9,3.7,14.9,5.9,14.9,4.6,0,9.6.2,14.9.5,5.3.4,10.1.3,14.4-.2,4.2-.5,7.7-2.1,10.4-4.5,2.7-2.5,3.6-6.7,2.9-12.8-.1-.4-.1-.7-.1-1.1-3.1-23.1-4.6-48.9-4.4-77.2.2-28.7,1.7-58,4.5-87.9,2.9-29.8,6.7-58.8,11.7-86.8,5-28.1,10.7-53.1,17.1-75.1s13.3-39.7,20.8-53c7.4-13.3,14.9-20,22.4-20,2.9,0,4.6,6.4,5.3,19.2.7,12.8.8,29.6.3,50.6-.5,20.9-1.5,44.7-2.9,71.4-1.4,26.6-2.8,53.9-4.2,81.7-1.4,27.9-2.6,55.1-3.5,81.8-.9,26.6-1.1,50.4-.5,71.4.2,7.5.5,14.4.9,20.9.7,11.6,1.7,21.5,3.1,29.7,2.1,12.8,5.7,19.2,10.6,19.2,9.2,0,17.1-.8,23.4-2.4,6.4-1.6,9.6-6.5,9.6-14.6,0-2.1-.1-9.3-.3-21.6-.1-4.9-.1-10.4-.1-16.4,0-8.9,0-19,.1-30.2.2-18.8.6-39.9,1.3-63.1.7-23.2,1.8-46.9,3.2-70.8,1.4-24,3.4-47.3,5.9-70s5.8-42.9,9.9-60.5,8.9-31.8,14.4-42.6c5.5-10.8,12-16.2,19.4-16.2,2.9,0,4.3,5.3,4.3,16s-.6,24.7-1.9,42.1c-1.2,17.4-2.9,37.2-4.8,59.4-1.9,22.2-3.6,44.9-4.8,68.2-1.2,23.3-1.9,46-1.9,68.2s1.3,42,4,59.4c1.6,10.8,3.9,20.2,6.9,28.4,1.8,5,3.9,9.6,6.2,13.6,6,10.6,14.4,16,25.1,16,11.7,0,21.6-3.7,29.6-11.2,8-7.4,14.6-16.9,20-28.5,2.8-6.1,5.4-12.6,7.6-19.5,2-6.1,3.7-12.4,5.2-19.1,1.1-4.7,2.1-9.3,3-13.9,2.6,3.3,5.4,5.9,8.5,7.7,5.5,3.4,11.1,5.2,16.8,5.6,3.2.2,6.1.4,8.7.4,1.9.1,3.7.1,5.2.1,3.9,0,9.3-1.4,16.2-4.3,6.9-2.8,12.9-7.3,17.8-13.3,1.1,5,2.5,10.3,4.2,16,1.8,5.7,4.4,10.9,7.7,15.7,3.4,4.8,7.7,8.8,13.1,12,5.3,3.2,11.7,4.8,19.2,4.8,11.4,0,20.6-4.1,27.7-12.2,7.1-8.2,13.1-18.7,17.8-31.7,1.7-4.6,3.2-9.4,4.7-14.3,1.7,1.5,3.6,2.9,5.6,4.2,5.7,3.4,12.8,5.1,21.3,5.1s17.8-2.4,26.6-7.1c8.9-4.7,17.1-10.2,24.5-16.3v35.7c-11,13.1-21.5,26-31.4,38.6s-18.7,25-26.4,37c-7.6,12.1-13.7,23.9-18.1,35.4-4.4,11.6-6.7,22.7-6.7,33.3,0,14.6,2.9,26.8,8.8,36.7,5.9,9.9,13.1,17.2,21.9,21.9,8.7,4.6,18.1,6.5,28.2,5.6s19.5-5.1,28.2-12.5,16-18.3,21.9-32.5,8.8-32.3,8.8-54.4c0-8.9.1-18.7.3-29.6.2-10.8.4-22,.8-33.5.3-11.6.8-22.9,1.3-34.1.6-11.2,1-22,1.3-32.4,8.9-10.5,16.5-19.4,22.9-26.7,6.4-7.3,12-13.7,16.8-19.2,1.1-1.2,2.1-2.4,3.1-3.5.4,9.2,1.2,18.8,2.5,28.8,1.4,11,3.6,21.1,6.4,30.4,2.8,9.2,6.6,16.9,11.4,22.9,4.8,6.1,10.7,9.1,17.8,9.1,9.6,0,18.6-3.5,27.2-10.4,8.5-6.9,16-15.7,22.4-26.4.6-1,1.1-2.1,1.7-3.1,3.6,11.4,8.7,21.6,15.6,30.5,6.9,9.1,15.2,16.4,25,21.9s20.9,8.2,33.3,8.2c9.2,0,17.8-3.2,25.8-9.6s15.2-14.4,21.6-24c6.4-9.6,12-20.2,16.8-31.7,4.8-11.6,8.9-22.5,12.2-32.8,3.4-10.3,5.9-19.2,7.4-26.6,1.6-7.4,2.4-11.9,2.4-13.3.3-.9-.4-2.2-1.6-2.9Zm-114.8,8.8c3.2-6.2,6.4-11,9.6-14.4s6.2-5.6,9.1-6.7c2.8-1.1,4.6-1.6,5.3-1.6,2.1,0,4.9.5,8.2,1.6,3.4,1.1,5.1,4.6,5.1,10.7,0,5.7-1.3,10.6-4,14.6-2.7,4.1-6.1,7.5-10.4,10.1-4.2,2.7-9.1,4.8-14.4,6.4s-10.7,2.7-16,3.5c1.8-9.9,4.3-18,7.5-24.2Zm-1169.1-14.4c3.2-3.4,6.2-5.6,9.1-6.7,2.8-1.1,4.6-1.6,5.3-1.6,2.1,0,4.9.5,8.2,1.6,3.4,1.1,5.1,4.6,5.1,10.7,0,5.7-1.3,10.6-4,14.6-1.7,2.6-3.7,4.9-6,6.9-1.4,1.2-2.8,2.2-4.4,3.2-4.2,2.7-9.1,4.8-14.4,6.4-5.3,1.6-10.6,2.7-16,3.5,1.8-9.9,4.3-18,7.5-24.2,1.6-3.2,3.3-6,4.9-8.4,1.6-2.3,3.2-4.3,4.7-6Zm953.7,152.4c-.2,7.6-.3,14.8-.3,21.6v38.4c0,23.1-3.4,40.4-10.1,51.9s-14.3,18.4-22.6,20.5c-8.4,2.1-15.9-.3-22.6-7.2-6.7-6.9-10.1-17.5-10.1-31.7,0-16.7,6.5-34.9,19.4-54.6,13-19.7,28.5-41.3,46.6-64.7-.1,9.5-.2,18.1-.3,25.8Z"/>
</svg>